<?xml-stylesheet type="text/css" href="style/portfolio.css" ?>

<!-- Designed by Vexels.com - 2016 All Rights Reserved - https://vexels.com/terms-and-conditions/  -->

<svg version="1.0" id="boltandgear" xmlns="http://www.w3.org/2000/svg"
    xmlns:xlink="http://www.w3.org/1999/xlink" x="0px" y="0px"
	 width="1200px" height="1200px" viewBox="0 0 1200 1200" >

	 <style>
	 	.gear {
	fill:yellow;
	stroke: blue;
}
.circle {
	fill: blue;
}
.bolt {
	fill: purple;
}
	 </style>
	<path class="gear"  d="M966.466,689.829l12.106-99.707l-81.035-10.776l-5.007-40.677l73.489-29.083l-35.628-93.957l-74.346,27.183
		l-23.321-33.66l50.124-58.272l-75.271-66.667l-51.715,57.047l-36.299-18.981l17.005-73.657l-97.032-23.887l-19.095,73.263h-40.958
		l-19.095-73.27l-97.642,24.08l17.159,73.695l-36.272,19.025L391.85,284.67l-75.239,66.63l50.285,58.247l-23.274,33.711
		l-74.315-27.04l-35.623,93.954l73.611,29.016l-4.926,40.644l-80.941,10.952l12.106,99.667l81.239-8.807l14.55,38.299
		l-68.561,48.729l57.008,82.589l69.863-46.964l30.675,27.161l-38.83,76.551l88.819,46.591l40.865-75.557l39.773,9.783l1.209,86.45
		h100.297l1.057-86.534l39.768-9.852l40.951,75.436l88.812-46.632l-39.012-76.558l30.641-27.208l69.861,46.782l57.023-82.593
		l-68.716-48.63l14.47-38.332L966.466,689.829z "/>
	<path class="circle"   d="M599.995,393.794c-114.186,0-207.082,92.894-207.082,207.079c0,114.191,92.896,207.093,207.082,207.093
		S807.08,715.065,807.08,600.873C807.08,486.689,714.182,393.794,599.995,393.794z "/>
	<path class="bolt"  d="M561.497,433.018l20.09,132.249h-94.695L655.687,771.11l-34.763-128.702h90.732L561.497,433.018z
		 "/>

</svg>
