<?xml version="1.0" standalone="no"?>
<!DOCTYPE svg PUBLIC "-//W3C//DTD SVG 20010904//EN"
 "http://www.w3.org/TR/2001/REC-SVG-20010904/DTD/svg10.dtd">
<svg version="1.0" xmlns="http://www.w3.org/2000/svg"
 width="512.000000pt" height="512.000000pt" viewBox="0 0 512.000000 512.000000"
 preserveAspectRatio="xMidYMid meet">
<metadata>
Created by potrace 1.15, written by Peter Selinger 2001-2017
</metadata>
<g transform="translate(0.000000,512.000000) scale(0.100000,-0.100000)"
fill="#000000" stroke="none">
<path d="M2323 4161 c26 -9 -286 -84 -315 -76 -18 5 -20 4 -8 -4 12 -9 11 -11
-7 -11 -13 0 -23 -4 -23 -9 0 -6 16 -78 35 -162 20 -83 34 -153 33 -154 -19
-16 -91 -44 -100 -39 -6 4 -8 3 -5 -3 4 -6 -4 -15 -17 -21 -21 -9 -28 -6 -56
23 -18 18 -30 37 -27 42 4 6 -15 30 -41 54 l-47 44 45 -50 45 -50 -53 50 c-29
27 -50 55 -48 61 7 19 -36 51 -67 50 -20 -1 -44 -18 -90 -67 -34 -36 -48 -49
-32 -29 17 19 -7 -2 -51 -49 -45 -46 -86 -81 -91 -78 -6 4 -21 -6 -34 -21
l-24 -27 30 25 30 25 -29 -32 c-28 -31 -28 -34 -13 -51 20 -22 22 -36 5 -26
-7 4 0 -7 16 -24 36 -39 49 -43 15 -4 l-24 27 28 -24 c15 -14 27 -32 27 -41 0
-9 12 -27 27 -41 l28 -24 -25 30 -25 30 33 -29 c17 -17 31 -37 30 -45 -2 -9 4
-16 12 -16 8 -1 14 -7 12 -14 -1 -7 2 -10 7 -7 5 3 14 0 20 -8 8 -10 6 -20
-11 -42 -27 -37 -44 -54 -33 -35 5 9 4 12 -3 7 -6 -4 -9 -13 -6 -20 3 -8 0
-17 -7 -22 -8 -5 -10 -3 -4 6 6 9 4 11 -4 6 -7 -5 -10 -14 -7 -22 3 -7 0 -16
-6 -20 -7 -4 -8 -3 -4 4 4 7 1 12 -9 12 -9 0 -14 -4 -10 -9 3 -6 -32 4 -77 21
-218 80 -228 82 -241 68 -10 -10 -9 -11 2 -5 11 6 13 4 7 -11 -5 -10 -13 -31
-18 -46 -6 -16 -15 -25 -21 -21 -6 3 -7 1 -3 -6 4 -6 2 -28 -4 -47 -9 -27 -15
-33 -21 -23 -6 9 -9 10 -9 2 0 -6 -3 -20 -6 -30 -5 -15 -4 -15 5 -3 14 19 14
11 0 -29 -9 -24 -14 -29 -20 -19 -6 8 -9 9 -9 1 0 -6 -3 -20 -6 -30 -5 -15 -4
-15 5 -3 16 23 13 8 -10 -54 -12 -31 -26 -53 -31 -50 -6 4 -6 -1 0 -12 6 -11
44 -32 86 -48 44 -16 73 -33 69 -39 -3 -6 -1 -7 6 -3 16 10 53 -3 45 -16 -4
-7 -2 -8 5 -4 6 4 32 0 56 -10 42 -16 45 -19 45 -54 0 -21 -6 -43 -14 -49 -15
-13 -27 -71 -15 -71 4 0 10 15 12 33 l4 32 1 -33 c1 -19 -3 -35 -11 -38 -8 -3
-90 -15 -183 -27 -165 -23 -169 -24 -171 -48 l-2 -24 8 25 c9 27 7 37 35 -193
7 -54 9 -100 4 -103 -4 -3 -8 -15 -7 -27 1 -20 2 -20 9 3 l8 25 1 -26 c1 -15
4 -41 7 -58 l7 -31 83 2 c46 2 84 6 84 11 0 4 15 6 33 6 l32 -1 -30 -8 -30 -8
32 -1 c17 0 38 6 47 14 8 8 21 15 28 15 10 0 9 -3 -2 -10 -11 -7 -8 -10 16
-10 21 0 34 6 39 18 6 14 11 9 25 -23 25 -57 35 -94 20 -75 -9 12 -10 10 -4
-10 4 -14 7 -30 7 -37 0 -7 4 -10 8 -7 5 2 6 11 2 19 -3 8 -3 15 0 15 3 0 7
-7 10 -15 4 -9 -6 -23 -26 -37 -27 -19 -30 -19 -17 -3 13 16 10 15 -17 -4 -18
-12 -33 -25 -33 -28 0 -3 7 0 15 7 8 7 15 10 15 7 0 -3 -15 -16 -32 -28 -28
-19 -31 -20 -18 -4 13 16 10 15 -17 -4 -18 -12 -33 -25 -33 -28 0 -3 7 0 15 7
8 7 15 10 15 7 0 -3 -15 -16 -32 -28 -27 -19 -30 -20 -18 -4 9 11 -4 6 -32
-14 -27 -17 -48 -34 -48 -37 0 -3 15 4 33 16 l32 22 -30 -26 c-16 -14 -35 -24
-41 -22 -13 5 -12 -59 1 -71 4 -5 5 -2 0 6 -6 10 -4 12 4 7 7 -5 10 -14 7 -22
-3 -7 0 -16 6 -20 7 -5 8 -2 3 6 -6 9 -4 11 4 6 7 -5 10 -14 7 -22 -3 -7 0
-16 6 -20 7 -5 8 -2 3 7 -8 12 -6 12 8 0 20 -16 23 -36 5 -25 -8 4 -10 3 -5
-2 5 -5 14 -9 20 -9 7 0 12 -8 12 -17 0 -9 4 -20 9 -25 5 -5 6 -2 1 6 -6 10
-4 12 4 7 7 -5 10 -14 7 -22 -3 -7 0 -16 6 -20 7 -5 8 -2 3 6 -6 9 -4 11 4 6
7 -5 10 -14 7 -22 -3 -7 0 -16 6 -20 7 -5 8 -2 3 6 -6 9 -4 11 4 6 7 -5 10
-14 7 -22 -3 -7 0 -16 6 -20 7 -5 8 -2 3 7 -8 12 -6 12 9 0 9 -8 15 -20 12
-27 -3 -7 0 -16 6 -20 7 -5 8 -2 3 6 -6 9 -4 11 4 6 7 -5 10 -15 7 -23 -3 -8
-2 -12 3 -9 5 3 16 -6 25 -20 17 -24 18 -24 34 -6 9 10 13 11 7 3 -7 -10 -2
-10 18 3 24 17 41 36 17 21 -24 -15 -7 4 18 21 26 17 27 17 12 -1 -8 -10 28
10 80 45 85 56 140 97 101 75 -9 -5 -12 -4 -7 3 4 6 14 8 23 5 12 -5 14 -3 8
8 -5 8 1 5 13 -5 26 -23 30 -34 5 -15 -16 13 -17 12 -5 -3 8 -9 19 -15 26 -12
6 2 27 -11 45 -30 25 -25 31 -39 26 -55 -3 -12 -11 -19 -16 -16 -5 3 -6 -2 -2
-11 4 -12 3 -15 -5 -10 -8 5 -10 1 -5 -10 5 -13 3 -15 -7 -9 -8 5 -11 4 -7 -3
9 -13 -2 -44 -13 -37 -4 2 -12 -7 -19 -21 -6 -14 -7 -23 -1 -19 6 3 7 -1 4 -9
-3 -9 -10 -14 -14 -11 -4 3 -11 -2 -14 -11 -3 -8 -2 -12 4 -9 6 4 5 -5 -1 -19
-7 -14 -16 -23 -22 -19 -6 3 -7 1 -4 -5 8 -12 -2 -44 -12 -38 -4 3 -13 -5 -21
-17 -12 -21 -12 -21 5 -7 17 14 18 14 6 -7 -6 -13 -8 -23 -3 -23 4 0 17 -7 28
-15 19 -15 19 -15 -1 -9 -15 4 -17 4 -6 -4 8 -6 21 -8 29 -4 10 3 13 1 8 -6
-5 -8 -1 -10 10 -5 12 4 15 3 10 -5 -5 -8 -1 -10 10 -5 12 4 15 3 10 -5 -5 -8
-1 -10 10 -5 13 5 15 3 9 -7 -5 -8 -4 -11 3 -6 11 6 112 -38 112 -49 0 -3 -18
4 -40 15 -22 11 -40 18 -40 15 0 -2 23 -16 51 -31 28 -14 48 -21 44 -15 -4 8
2 7 19 0 14 -7 23 -16 20 -20 -3 -5 3 -6 12 -2 13 5 15 3 9 -7 -5 -9 -4 -11 3
-6 6 4 24 0 39 -9 16 -9 19 -13 8 -10 -14 4 -17 3 -9 -5 15 -15 41 -3 47 22 3
11 10 17 16 13 7 -4 8 0 4 11 -4 12 -3 15 5 10 8 -5 10 -1 5 10 -5 13 -3 15 7
9 9 -5 11 -4 6 3 -4 6 0 25 9 42 18 34 31 41 15 7 -10 -20 -10 -21 4 -4 8 11
12 26 9 35 -4 10 -2 13 5 8 8 -5 10 -1 5 10 -5 13 -3 15 7 9 9 -5 11 -4 6 3
-10 16 32 94 46 86 7 -4 8 -3 4 4 -4 7 -2 20 4 29 10 16 11 16 6 1 -3 -12 -1
-15 9 -11 8 3 13 8 10 13 -2 4 7 5 21 2 14 -2 21 -7 16 -11 -6 -3 9 -6 31 -6
80 -1 77 8 77 -200 l0 -185 210 0 c161 0 210 -3 210 -12 0 -9 4 -8 10 2 5 8
10 69 10 135 0 66 3 151 7 189 l6 68 36 -6 c21 -3 30 -2 23 3 -10 6 -5 10 15
14 15 3 37 9 47 13 13 5 17 4 13 -3 -4 -6 0 -14 9 -17 12 -5 15 -2 10 11 -5
15 -3 15 9 -2 9 -11 13 -25 10 -33 -3 -8 0 -10 7 -6 8 5 9 2 5 -10 -5 -11 -3
-15 5 -10 8 5 9 2 5 -10 -5 -11 -3 -15 5 -10 7 5 9 2 5 -8 -3 -9 1 -24 9 -35
14 -17 14 -16 4 5 -16 34 -3 26 16 -9 8 -17 11 -28 5 -25 -7 4 -8 1 -5 -8 3
-9 10 -14 14 -11 4 3 11 -2 14 -11 3 -8 2 -12 -4 -9 -6 3 -7 -1 -4 -9 3 -9 10
-14 15 -11 12 8 41 -53 33 -68 -4 -7 -4 -9 1 -5 4 4 16 -3 26 -15 15 -19 20
-20 31 -8 11 12 11 13 -2 7 -8 -4 -6 0 5 8 11 9 25 14 33 11 8 -3 10 0 6 7 -5
8 -2 9 10 5 9 -4 15 -3 12 2 -3 4 6 13 20 20 17 7 23 8 19 0 -4 -5 20 4 54 21
34 16 61 33 61 35 0 3 -22 -6 -50 -20 -27 -14 -50 -23 -50 -20 0 3 36 23 81
45 44 23 78 36 74 31 -4 -7 0 -8 10 -5 9 4 13 9 10 12 -7 7 46 42 56 37 4 -3
9 4 12 15 3 13 1 18 -6 13 -7 -4 -8 0 -4 11 5 11 3 15 -5 10 -8 -5 -9 -2 -5
10 5 11 3 15 -5 10 -8 -5 -9 -2 -5 9 4 10 2 16 -6 14 -7 -1 -12 8 -11 20 0 12
-3 20 -7 17 -11 -6 -112 195 -106 211 3 6 31 34 62 60 44 38 58 46 68 36 9
-10 9 -11 -4 -6 -9 3 -22 -2 -30 -12 -13 -16 -12 -17 4 -4 16 12 33 4 165 -84
81 -54 141 -91 133 -81 -12 14 -12 16 3 10 11 -4 23 1 32 12 9 11 12 13 8 5
-4 -9 -3 -12 4 -7 6 4 9 13 6 20 -3 8 0 17 7 22 8 5 10 3 4 -7 -5 -8 -4 -11 1
-6 5 5 9 16 9 25 0 9 5 17 12 17 6 0 15 4 20 9 5 5 3 6 -4 2 -19 -11 -16 9 4
25 14 12 16 12 8 0 -5 -9 -4 -12 3 -7 6 4 9 13 6 20 -3 8 0 17 7 22 8 5 10 3
4 -6 -5 -9 -4 -11 4 -6 6 4 9 12 6 17 -6 8 50 99 61 99 3 0 2 -5 -2 -12 -4 -7
-3 -8 4 -4 6 4 9 13 6 20 -3 8 0 17 7 22 8 5 10 3 4 -6 -5 -8 -4 -11 3 -6 6 4
9 13 6 20 -3 8 0 17 7 22 8 5 10 3 4 -6 -5 -8 -4 -11 1 -7 6 3 10 23 9 44 0
29 -4 37 -16 35 -9 -1 -23 6 -30 15 -13 16 -12 17 4 4 9 -7 17 -11 17 -8 0 3
-21 21 -47 38 -29 20 -42 25 -33 14 12 -16 9 -15 -17 4 -18 12 -33 25 -33 28
0 3 7 0 15 -7 8 -7 15 -10 15 -7 0 3 -15 16 -32 28 -28 19 -31 20 -18 4 13
-16 10 -15 -17 4 -18 12 -33 25 -33 28 0 3 7 0 15 -7 8 -7 15 -10 15 -7 0 3
-15 16 -32 28 -27 19 -30 20 -18 4 15 -18 14 -18 -11 -1 l-27 17 31 79 c22 59
33 78 42 70 6 -5 15 -7 18 -3 4 3 7 1 7 -5 0 -7 14 -12 33 -11 l32 1 -30 9
c-22 6 -16 7 25 4 30 -3 64 -5 75 -6 13 -1 10 -4 -10 -9 l-30 -8 33 -1 c18 0
32 4 32 11 0 6 7 4 18 -5 10 -10 32 -17 48 -17 22 0 26 3 14 10 -13 8 -13 10
2 10 9 0 23 -7 32 -15 19 -19 22 -19 30 1 8 21 59 434 54 439 -2 2 -77 13
-168 25 -91 12 -168 25 -172 29 -4 3 -10 41 -14 83 l-7 77 39 16 c22 10 51 18
66 19 14 0 24 4 22 8 -6 10 34 20 47 12 7 -4 9 -3 5 4 -8 13 29 26 45 16 7 -4
9 -3 6 3 -4 6 13 18 37 27 24 9 47 24 50 32 3 8 2 13 -3 10 -12 -8 -85 190
-75 205 4 7 3 10 -3 6 -6 -4 -24 29 -43 81 -18 48 -34 89 -36 91 -1 1 -25 -4
-53 -14 -28 -9 -56 -13 -62 -9 -7 4 -9 3 -6 -3 4 -7 -34 -25 -95 -47 l-102
-37 -18 23 c-10 13 -16 28 -13 35 2 7 -1 15 -7 19 -7 5 -8 2 -3 -7 8 -12 6
-12 -9 0 -9 8 -15 20 -12 27 3 7 0 16 -6 20 -7 4 -8 3 -4 -4 4 -7 5 -12 2 -12
-3 0 -10 8 -15 19 -8 14 -6 23 12 37 l22 19 -20 -25 -20 -25 22 18 c12 11 20
24 17 31 -2 6 10 25 28 41 l33 30 -30 -35 -30 -35 32 29 c17 15 29 34 27 40
-2 6 10 25 28 41 l33 30 -25 -30 -25 -30 27 24 c15 13 24 28 22 35 -3 7 8 23
23 36 l28 25 -20 -25 -20 -25 22 19 c17 14 20 23 13 36 -5 10 -7 19 -5 22 3 3
-7 15 -23 29 l-27 24 20 -25 c11 -14 -7 2 -40 35 -33 34 -46 45 -30 25 17 -20
-2 -2 -42 39 -40 42 -78 75 -86 73 -7 -1 -26 13 -43 30 l-29 33 35 -30 35 -30
-27 30 c-38 43 -61 41 -111 -9 l-42 -42 35 41 35 40 -42 -39 c-23 -21 -39 -44
-37 -50 3 -7 -20 -36 -50 -64 -30 -29 -52 -52 -49 -52 3 0 0 -6 -7 -14 -9 -12
-17 -12 -35 -4 -14 6 -22 15 -18 21 3 6 1 7 -5 3 -13 -8 -102 34 -102 48 0 6
16 78 35 160 19 82 35 150 35 151 0 1 -28 8 -62 15 -45 9 -58 14 -47 21 10 8
8 9 -9 4 -29 -8 -261 47 -235 56 10 3 -3 6 -29 5 -45 -1 -47 -2 -53 -35 -5
-27 -9 -31 -16 -20 -8 10 -9 9 -4 -8 5 -19 -19 -134 -46 -221 l-11 -33 -81 3
-80 3 -40 155 -40 155 -46 1 c-25 1 -38 -2 -28 -5z m41 -107 c4 -19 10 -43 13
-52 4 -15 3 -15 -6 -2 -6 8 -11 10 -11 4 0 -6 6 -17 14 -23 8 -6 19 -33 25
-59 7 -26 16 -64 22 -84 l10 -38 129 0 130 0 6 28 c4 15 21 81 39 147 30 115
32 120 55 117 14 -2 29 -10 33 -18 4 -8 13 -14 20 -14 7 0 6 4 -3 10 -13 8
-12 10 3 10 10 0 20 -7 23 -15 4 -8 10 -15 16 -15 5 0 6 5 3 10 -7 12 -3 12
19 4 9 -3 13 -10 10 -15 -3 -5 8 -6 23 -4 15 3 51 -1 78 -9 28 -8 41 -15 30
-16 l-20 -1 20 -8 c12 -5 23 -4 28 3 5 6 6 3 3 -9 -3 -11 -19 -80 -36 -154
-29 -126 -32 -170 -11 -156 14 8 193 -84 186 -95 -12 -20 6 -9 47 27 36 31 39
32 18 8 l-25 -30 27 24 c15 13 25 28 22 32 -4 7 128 161 144 166 4 2 41 -27
82 -64 157 -138 163 -144 149 -157 -9 -8 -10 -8 -4 3 5 9 4 12 -3 7 -6 -4 -9
-12 -6 -19 2 -7 -10 -26 -28 -42 l-33 -30 25 30 25 30 -27 -24 c-15 -13 -25
-28 -22 -35 2 -6 -27 -43 -64 -83 -38 -40 -64 -71 -58 -70 6 1 11 -5 11 -14 0
-9 8 -27 18 -40 10 -13 15 -18 11 -10 -5 10 -3 12 5 7 7 -5 10 -14 7 -22 -3
-7 0 -16 6 -20 7 -5 8 -2 3 7 -8 12 -6 12 8 0 20 -16 23 -36 5 -25 -8 4 -10 3
-5 -2 5 -5 14 -9 20 -9 7 0 12 -8 12 -17 0 -9 4 -20 9 -25 5 -5 6 -2 1 6 -6
10 -4 12 4 7 7 -5 10 -15 7 -23 -3 -8 -2 -12 3 -8 5 3 11 0 13 -7 3 -9 42 1
131 33 70 26 127 43 127 39 0 -5 9 -6 21 -3 13 4 17 8 9 13 -8 5 -5 9 8 12 16
4 19 1 15 -16 -3 -14 -2 -17 4 -9 6 9 14 -2 26 -33 11 -30 12 -43 4 -39 -7 4
-5 1 4 -7 16 -13 85 -185 78 -192 -16 -14 -265 -106 -276 -102 -8 3 -11 1 -8
-4 3 -6 2 -10 -3 -10 -5 0 -12 -9 -15 -20 -3 -11 -1 -20 5 -20 6 0 8 -17 6
-40 -2 -22 -1 -40 3 -40 4 0 9 -31 13 -69 l7 -69 52 -8 c40 -5 47 -9 32 -15
-19 -7 -19 -8 3 -8 12 -1 22 4 22 9 0 15 16 12 34 -5 8 -8 23 -15 33 -15 15 0
16 2 3 11 -12 8 -10 9 10 5 14 -3 34 -6 45 -7 l20 0 -20 -10 c-15 -7 -8 -8 23
-4 28 4 41 2 37 -5 -3 -6 3 -10 15 -10 12 0 18 5 15 10 -3 6 -1 10 5 10 6 0 9
-8 6 -17 -3 -10 -8 -51 -12 -90 -4 -42 -12 -78 -20 -84 -8 -6 -13 -23 -13 -38
1 -25 2 -25 9 4 l8 30 0 -30 c1 -16 -3 -48 -7 -70 -8 -37 -9 -38 -11 -10 -2
25 -4 26 -7 8 -5 -28 -5 -28 -181 -7 -97 11 -137 13 -140 5 -2 -6 -8 -9 -13
-6 -5 4 -7 0 -4 -7 3 -7 -13 -58 -34 -113 -22 -55 -40 -94 -40 -86 -1 8 -4 11
-8 8 -3 -4 2 -16 12 -27 10 -11 14 -20 9 -20 -5 0 2 -7 14 -16 13 -9 26 -13
29 -10 9 9 64 -34 57 -45 -3 -6 2 -9 12 -7 11 2 18 -2 17 -9 -2 -7 3 -10 11
-7 7 3 19 -3 27 -12 9 -12 10 -15 2 -10 -25 15 -12 -2 15 -20 26 -17 27 -17
12 1 -12 16 -9 15 18 -4 17 -12 32 -25 32 -28 0 -3 -8 1 -17 8 -16 13 -17 12
-4 -4 8 -10 20 -16 28 -13 21 8 14 -16 -13 -49 -15 -16 -23 -24 -19 -16 6 9 4
12 -4 7 -6 -4 -9 -11 -6 -16 5 -9 -42 -90 -52 -90 -2 0 -1 5 3 12 4 7 3 8 -4
4 -6 -4 -9 -13 -6 -20 3 -7 -3 -19 -12 -27 -15 -12 -17 -12 -9 0 5 10 4 12 -4
7 -6 -4 -9 -12 -6 -17 8 -12 -22 -54 -38 -54 -6 -1 -71 38 -143 86 -72 48
-138 89 -147 91 -9 2 -44 -28 -85 -71 -49 -51 -74 -71 -83 -66 -8 5 -11 4 -6
0 4 -5 -1 -17 -10 -28 -11 -13 -12 -17 -4 -12 11 6 13 4 8 -9 -4 -9 -3 -15 1
-12 5 3 21 -20 35 -50 15 -31 23 -53 17 -49 -6 3 -7 0 -4 -9 3 -9 9 -14 13
-11 4 2 20 -21 34 -51 15 -31 23 -53 17 -49 -6 4 -6 -3 1 -19 7 -14 15 -23 19
-21 5 3 10 -2 14 -10 6 -16 -10 -26 -178 -114 -77 -41 -101 -49 -107 -39 -5 7
-7 19 -4 26 3 7 0 10 -5 7 -12 -8 -63 92 -54 107 5 7 2 8 -6 3 -10 -6 -12 -4
-7 9 4 10 3 15 -3 11 -12 -8 -53 72 -44 87 5 7 3 8 -6 3 -10 -6 -12 -4 -7 9 4
9 3 15 -2 11 -6 -3 -14 2 -19 10 -8 15 -21 13 -126 -13 -65 -17 -119 -32 -121
-34 -2 -2 -4 -26 -5 -53 -1 -28 -4 -107 -7 -178 l-6 -127 -151 2 -151 2 150 6
150 6 -147 2 -147 2 -4 63 -3 62 -4 -75 c-2 -49 -6 -15 -10 102 -3 97 -9 180
-12 183 -7 7 -224 64 -244 65 -7 0 -20 -12 -30 -27 -17 -27 -17 -28 1 -13 17
14 18 14 6 -8 -7 -12 -16 -20 -21 -17 -6 4 -7 -1 -3 -11 5 -13 3 -15 -7 -9 -8
5 -11 4 -6 -3 10 -16 -42 -114 -56 -106 -6 4 -8 3 -5 -4 9 -13 -2 -44 -13 -37
-4 3 -11 -2 -14 -11 -3 -9 -2 -12 5 -8 6 3 3 -8 -6 -26 -9 -17 -19 -30 -23
-28 -39 17 -252 130 -252 134 0 2 23 -7 50 -21 28 -14 50 -23 50 -20 0 11
-100 54 -114 49 -9 -3 -16 -3 -16 0 0 3 34 74 75 157 46 91 80 147 86 143 6
-3 5 4 -2 17 -7 13 -12 28 -11 32 1 5 -3 5 -9 1 -7 -4 -39 23 -80 67 -46 48
-77 74 -92 74 -20 0 -197 -108 -197 -121 0 -2 27 14 60 36 33 22 60 38 60 36
0 -3 -47 -37 -104 -75 -87 -59 -106 -68 -116 -56 -6 8 -9 19 -6 24 4 5 1 13
-5 17 -8 5 -9 3 -4 -7 8 -12 6 -12 -8 0 -20 16 -23 36 -4 25 7 -4 9 -3 4 2 -5
5 -14 9 -20 9 -7 0 -12 8 -12 17 0 9 -4 20 -9 25 -5 4 -6 3 -2 -4 4 -7 5 -13
3 -13 -10 0 -57 81 -52 90 3 5 0 12 -6 16 -8 5 -9 3 -4 -7 7 -12 6 -12 -7 -1
-19 15 -20 49 -4 72 10 13 9 13 -7 1 -10 -8 -15 -21 -12 -30 5 -12 3 -13 -6
-4 -14 14 -7 26 34 55 27 19 30 19 17 3 -13 -16 -10 -15 18 4 17 12 32 25 32
28 0 3 -7 0 -15 -7 -8 -7 -15 -10 -15 -7 0 3 15 16 33 28 27 19 30 20 17 4
-13 -16 -10 -15 18 4 17 12 32 25 32 28 0 3 -8 -1 -17 -8 -16 -13 -17 -12 -5
3 8 9 19 15 25 12 7 -2 23 6 37 18 14 13 19 19 10 13 -13 -9 -13 -8 -1 8 8 10
20 16 28 13 8 -3 12 -2 9 3 -3 5 1 14 9 21 8 7 15 18 15 24 0 7 -3 7 -8 -1 -5
-7 -23 27 -46 87 -20 55 -34 105 -30 111 4 7 3 9 -4 5 -5 -3 -12 -2 -14 3 -2
6 -65 3 -158 -7 -154 -18 -155 -18 -162 3 -5 18 -6 18 -7 -4 -2 -49 -9 -13
-25 124 -9 77 -18 149 -21 160 -4 17 1 21 28 22 30 1 30 1 7 -7 l-25 -8 28 -1
c15 -1 27 3 27 8 0 5 7 12 16 15 8 3 12 2 9 -4 -4 -6 6 -10 22 -9 25 0 26 1 8
9 -19 8 -19 9 2 9 12 1 29 4 39 8 12 4 15 3 10 -5 -5 -8 0 -12 13 -12 10 0 21
4 23 9 2 5 17 12 33 16 23 5 26 4 15 -4 -13 -9 -12 -11 6 -11 12 0 27 7 34 15
7 8 18 15 25 15 11 0 32 114 36 201 1 18 3 16 9 -11 6 -31 8 -32 9 -8 3 62 -9
71 -163 132 -80 32 -146 61 -146 66 0 10 96 265 108 287 8 14 12 13 31 -6 23
-23 35 -28 26 -8 -4 6 1 3 9 -7 9 -11 16 -15 16 -8 0 6 7 9 15 6 8 -4 13 -9
11 -13 -2 -3 10 -7 27 -7 17 -1 36 -9 44 -20 7 -10 13 -13 13 -6 0 6 7 9 15 6
8 -4 13 -10 10 -14 -3 -5 4 -6 15 -3 12 3 22 -1 26 -11 3 -9 10 -16 16 -16 5
0 7 3 4 8 -2 4 10 7 27 7 21 0 31 5 29 13 -2 12 54 102 64 102 3 0 2 -5 -2
-12 -4 -7 -3 -8 4 -4 6 4 9 12 7 19 -3 7 5 23 16 37 11 14 17 19 13 11 -4 -9
-3 -12 3 -8 6 4 8 19 6 34 -2 16 -5 34 -5 40 -1 7 -13 23 -27 35 l-26 23 25
-30 25 -30 -33 30 c-18 16 -30 35 -28 41 2 6 -10 25 -27 40 l-32 29 25 -30
c14 -17 -1 -4 -32 30 -32 33 -57 65 -57 70 0 6 53 56 117 112 l117 103 57 -57
c31 -30 54 -61 52 -67 -2 -6 17 -32 43 -56 l48 -45 -40 45 -40 46 47 -47 c43
-42 88 -73 73 -49 -8 12 152 93 167 84 7 -5 8 -2 3 6 -6 10 -4 12 11 6 10 -4
15 -4 11 0 -4 4 -3 12 2 18 5 6 -4 60 -20 126 -32 135 -43 195 -29 165 5 -11
9 -14 9 -7 1 6 9 12 19 13 14 0 14 2 -3 8 -17 7 -17 8 8 13 15 3 27 1 27 -3 0
-5 5 -9 11 -9 5 0 8 4 5 9 -3 5 1 11 9 15 8 3 15 1 15 -4 0 -6 5 -10 11 -10 5
0 7 5 4 10 -3 6 -4 10 -1 10 2 0 12 3 22 7 12 4 15 3 10 -5 -4 -7 -2 -12 4
-12 6 0 13 7 16 15 4 8 10 15 16 15 5 0 6 -4 3 -10 -3 -5 -2 -10 4 -10 5 0 14
6 18 14 8 13 81 36 94 29 4 -1 10 -19 13 -39z"/>
<path d="M2460 3439 c-41 -4 -106 -18 -145 -30 -38 -11 -80 -22 -92 -22 -11
-1 -19 -5 -17 -8 4 -8 -65 -41 -93 -44 -22 -3 -83 -41 -83 -52 0 -3 8 1 18 8
15 13 16 12 3 -4 -7 -9 -20 -16 -27 -15 -7 2 -39 -24 -71 -58 -32 -33 -42 -42
-23 -20 l35 41 -43 -40 c-23 -22 -40 -45 -38 -51 3 -7 -5 -20 -17 -31 -21 -18
-21 -18 -7 2 14 18 14 19 -2 6 -10 -7 -16 -17 -13 -21 2 -4 -3 -16 -11 -26 -9
-10 -12 -13 -8 -5 4 9 3 12 -4 7 -6 -4 -9 -13 -6 -20 3 -8 0 -17 -7 -22 -8 -5
-10 -3 -4 6 5 9 4 11 -4 6 -6 -4 -9 -11 -6 -16 3 -5 -10 -41 -30 -79 -19 -39
-47 -110 -62 -158 -23 -78 -26 -106 -27 -236 -1 -82 -4 -138 -8 -125 -5 19 -6
20 -7 4 -1 -11 5 -27 12 -35 18 -22 59 -170 51 -183 -4 -6 -3 -8 3 -5 5 3 22
-19 36 -49 15 -31 23 -53 17 -49 -6 3 -7 0 -4 -9 3 -9 11 -14 17 -13 7 1 12
-6 12 -15 0 -9 4 -20 9 -25 5 -5 6 -2 1 6 -6 10 -4 12 4 7 7 -5 10 -14 7 -22
-3 -7 0 -16 6 -20 7 -5 8 -2 4 7 -4 8 -1 5 8 -5 8 -10 13 -22 11 -26 -3 -4 5
-16 18 -26 l22 -19 -20 25 c-16 21 -14 20 13 -4 17 -17 32 -35 32 -41 0 -16
121 -126 136 -123 7 2 13 -1 13 -6 -1 -15 53 -45 69 -38 10 3 13 1 8 -6 -5 -8
-1 -10 10 -5 11 4 15 3 11 -4 -5 -7 0 -9 13 -6 15 4 20 0 20 -13 0 -16 2 -17
10 -4 9 14 15 7 11 -14 -1 -5 6 -6 15 -2 22 9 99 -15 82 -25 -7 -5 4 -6 24 -2
29 4 39 2 44 -11 3 -9 14 -16 23 -16 14 0 14 2 1 11 -11 8 -7 9 19 5 18 -3 39
-6 45 -6 6 0 4 -5 -4 -10 -10 -7 19 -10 90 -10 63 0 100 4 91 9 -17 11 111 34
142 26 13 -4 17 -3 10 2 -8 5 9 16 48 29 32 12 59 17 59 13 0 -5 9 0 21 12 11
11 27 18 35 15 10 -4 12 -2 8 6 -5 7 -2 9 9 5 17 -6 138 74 172 114 19 24 19
24 -11 -1 -16 -14 -12 -8 10 13 22 21 54 53 70 71 17 18 24 23 16 12 -15 -21
-15 -21 7 -3 12 11 19 24 17 31 -3 7 3 19 12 27 15 12 17 12 9 0 -5 -9 -4 -12
3 -7 6 4 9 13 6 20 -3 8 0 17 7 22 8 5 10 3 4 -7 -5 -8 -4 -11 1 -6 5 5 9 16
9 25 0 9 6 16 13 14 8 -1 11 2 8 7 -9 14 46 121 57 114 6 -3 7 -1 3 5 -3 6 6
50 20 99 24 78 27 105 27 238 1 135 -2 159 -26 238 -15 48 -43 119 -62 158
-20 38 -33 74 -30 79 3 5 0 12 -6 16 -8 5 -9 3 -4 -6 6 -9 4 -11 -4 -6 -7 5
-10 14 -7 22 3 7 0 16 -6 20 -7 5 -8 2 -3 -7 8 -12 6 -12 -9 0 -9 8 -15 20
-12 27 2 7 -5 20 -17 31 l-22 18 20 -25 20 -25 -23 19 c-12 11 -21 25 -18 32
2 6 -14 29 -37 50 l-42 39 35 -41 c19 -22 8 -12 -25 22 -66 67 -143 127 -156
119 -9 -6 -100 36 -94 44 1 3 -7 7 -18 8 -12 1 -62 13 -112 26 -105 28 -220
38 -325 26z m65 -59 c-4 -6 11 -10 37 -10 33 0 40 3 28 11 -11 8 -7 9 19 5 18
-3 41 -6 50 -7 12 0 11 -2 -4 -9 -18 -8 -17 -9 8 -9 15 -1 27 3 27 8 0 5 9 7
20 4 11 -3 17 -9 14 -14 -3 -5 0 -9 5 -9 6 0 11 4 11 9 0 6 24 3 52 -6 63 -18
190 -74 184 -80 -2 -3 -14 0 -25 7 -12 6 -21 8 -21 6 0 -10 61 -37 70 -31 5 3
12 0 16 -6 4 -8 3 -9 -4 -5 -25 15 -10 -3 16 -20 26 -17 27 -17 12 2 -14 18
-14 18 5 4 67 -49 135 -115 131 -125 -2 -7 5 -21 17 -32 l22 -18 -20 25 -20
25 23 -19 c12 -11 20 -26 18 -33 -3 -7 0 -15 6 -19 7 -5 8 -2 3 7 -8 12 -6 12
9 0 9 -8 15 -20 12 -28 -4 -8 -1 -11 5 -8 6 4 9 1 8 -6 -3 -19 11 -50 20 -44
4 2 15 -12 25 -31 9 -20 12 -33 7 -30 -5 3 -7 -3 -4 -15 4 -15 8 -17 14 -8 5
9 10 5 14 -13 4 -15 4 -32 -1 -39 -4 -7 -3 -9 3 -6 6 4 14 0 17 -9 9 -25 7
-41 -4 -24 -6 9 -10 10 -10 3 0 -7 7 -16 15 -20 7 -5 16 -28 19 -53 4 -33 3
-39 -3 -20 -8 23 -9 23 -10 4 -1 -12 6 -27 14 -34 20 -17 20 -151 0 -256 -17
-92 -63 -216 -76 -208 -9 5 -10 4 -14 -33 -4 -35 -88 -144 -171 -222 -91 -85
-232 -160 -363 -192 -122 -31 -320 -24 -439 15 -53 17 -80 31 -76 38 4 7 3 8
-4 4 -22 -13 -153 66 -233 142 -188 177 -279 401 -266 652 4 59 15 138 27 180
25 89 98 231 143 281 17 19 25 26 17 15 -15 -21 -15 -21 7 -3 12 11 19 25 17
32 -4 10 64 76 131 125 19 14 19 14 5 -4 -15 -19 -14 -19 13 -2 25 17 40 35
15 20 -7 -4 -8 -3 -4 5 4 6 11 9 16 6 9 -6 70 21 70 31 0 2 -13 -2 -30 -11
-16 -9 -30 -13 -30 -10 0 10 141 72 200 88 92 25 112 29 105 17 -10 -16 41
-12 55 5 14 17 45 21 35 5z"/>
<path d="M2390 3264 c0 -16 -2 -17 -10 -4 -7 10 -10 11 -10 2 0 -7 7 -15 15
-18 9 -4 15 -18 14 -33 l-1 -26 -8 25 c-7 22 -8 23 -9 4 -1 -12 6 -27 15 -35
12 -10 14 -24 9 -70 -5 -44 -3 -59 7 -66 9 -5 22 -60 36 -158 12 -82 22 -156
22 -163 0 -10 -42 -13 -202 -11 -123 1 -203 -2 -205 -8 -2 -6 4 -16 14 -24 17
-13 17 -13 3 6 -15 20 -15 20 8 1 12 -11 21 -25 18 -31 -2 -6 15 -31 38 -56
22 -25 32 -34 21 -20 l-20 26 28 -25 c15 -13 26 -29 23 -36 -3 -7 5 -20 17
-31 l22 -18 -20 25 -20 25 23 -19 c12 -11 22 -28 22 -38 0 -11 4 -17 9 -14 11
7 45 -30 37 -42 -3 -5 4 -18 17 -28 l22 -19 -20 25 -20 25 23 -19 c12 -11 22
-27 22 -36 0 -9 10 -25 23 -36 l22 -19 -20 25 -20 25 23 -19 c12 -11 21 -25
18 -32 -3 -7 5 -20 17 -31 l22 -18 -20 25 -20 25 27 -24 c15 -13 24 -29 22
-35 -3 -7 6 -21 18 -32 l23 -19 -20 25 -20 25 23 -19 c12 -11 21 -25 18 -32
-3 -7 5 -20 17 -31 l22 -18 -20 25 -20 25 28 -25 c15 -13 26 -29 23 -36 -3 -7
5 -20 17 -31 l22 -18 -20 25 -20 25 23 -19 c12 -11 21 -25 18 -32 -2 -6 7 -22
22 -35 l27 -24 -25 30 -25 30 28 -25 c15 -13 25 -30 23 -36 -3 -7 3 -18 12
-26 16 -12 16 -11 2 7 -15 20 -14 20 8 1 12 -11 22 -27 22 -36 0 -9 10 -25 23
-36 l22 -19 -20 25 -20 25 23 -19 c12 -11 21 -25 18 -32 -3 -7 5 -20 17 -31
l22 -18 -20 25 -20 25 23 -19 c12 -11 22 -27 22 -36 0 -10 8 -24 18 -31 16
-13 16 -13 2 6 -14 19 -14 19 3 6 9 -7 17 -20 17 -27 0 -8 5 -14 10 -14 13 0
13 12 -5 82 -9 33 -13 69 -10 81 4 14 3 18 -3 9 -5 -8 -25 48 -57 165 -60 224
-60 222 -46 203 7 -10 11 -11 11 -2 0 9 41 12 169 12 126 0 171 -3 174 -12 4
-8 8 -4 12 9 4 13 12 20 18 16 6 -3 7 -1 3 6 -4 6 -11 9 -16 6 -10 -6 -43 43
-35 55 3 5 0 12 -6 16 -8 5 -10 2 -5 -7 4 -8 -4 0 -18 16 -14 17 -24 35 -21
42 2 7 -1 15 -7 19 -7 5 -8 2 -3 -7 8 -12 6 -12 -9 0 -9 8 -15 20 -12 27 3 7
0 16 -6 20 -7 5 -8 2 -3 -6 6 -9 4 -11 -4 -6 -7 5 -10 14 -7 22 3 7 0 16 -6
20 -7 5 -8 2 -3 -7 8 -12 6 -12 -9 0 -9 8 -15 20 -12 27 3 7 0 16 -6 20 -7 5
-8 2 -3 -6 6 -9 4 -11 -4 -6 -7 5 -10 14 -7 21 3 8 -3 19 -12 27 -15 11 -16
11 -7 -2 6 -9 0 -4 -13 10 -12 14 -20 30 -18 37 3 6 -3 17 -12 25 -15 11 -16
11 -7 -2 6 -9 0 -4 -13 10 -12 14 -20 30 -18 37 3 6 -3 17 -12 25 -15 11 -16
11 -7 -2 6 -9 0 -4 -13 10 -12 14 -20 30 -18 37 3 6 -3 17 -12 25 -16 12 -16
11 -2 -7 14 -19 14 -19 -3 -6 -10 8 -16 20 -13 27 3 7 0 16 -6 20 -7 5 -8 2
-3 -7 8 -12 6 -12 -9 0 -9 8 -15 20 -12 27 3 7 0 16 -6 20 -7 5 -8 2 -3 -6 6
-9 4 -11 -4 -6 -7 5 -10 14 -7 22 3 7 0 16 -6 20 -7 5 -8 2 -3 -7 8 -12 6 -12
-9 0 -9 8 -15 20 -12 27 3 7 0 16 -6 20 -7 5 -8 2 -3 -6 6 -9 4 -11 -4 -6 -7
5 -10 14 -7 22 3 7 0 16 -6 20 -7 5 -8 2 -3 -7 8 -12 6 -12 -9 0 -9 8 -15 20
-12 27 3 7 0 16 -6 20 -7 5 -8 2 -3 -6 6 -9 4 -11 -4 -6 -7 5 -10 14 -7 22 3
7 0 16 -6 20 -7 5 -8 2 -3 -7 8 -12 6 -12 -9 0 -9 8 -15 20 -12 27 3 7 0 16
-6 20 -7 5 -8 2 -3 -6 6 -9 4 -11 -4 -6 -7 5 -10 14 -7 21 3 8 -3 19 -12 27
-15 11 -16 11 -7 -2 6 -9 0 -4 -13 10 -12 14 -20 32 -16 40 3 8 2 11 -2 7 -4
-4 -13 -2 -21 4 -10 9 -13 7 -13 -7z m100 -225 c0 -18 4 -28 10 -24 6 4 7 12
4 18 -13 23 12 -7 50 -60 21 -29 35 -57 32 -62 -3 -5 2 -15 12 -22 15 -13 16
-12 3 4 -7 9 -11 17 -8 17 11 0 78 -100 73 -109 -4 -5 -1 -13 5 -17 8 -4 9 -3
5 4 -4 7 -5 12 -2 12 12 0 96 -133 90 -142 -4 -6 -2 -8 3 -5 13 8 37 -19 29
-32 -4 -5 -1 -13 5 -17 8 -5 9 -3 4 6 -6 9 -4 11 4 6 7 -5 10 -14 7 -21 -3 -8
3 -19 12 -27 15 -11 16 -11 7 2 -5 9 0 4 13 -10 12 -14 20 -30 18 -37 -3 -6 3
-17 12 -25 15 -12 16 -11 3 5 -7 9 -11 17 -8 17 3 0 20 -20 36 -44 l31 -44
-177 -2 c-116 0 -181 -5 -188 -12 -7 -8 -6 -9 2 -4 13 7 10 15 58 -162 27
-100 33 -137 25 -147 -8 -9 -8 -15 0 -20 5 -3 10 0 11 7 1 16 17 -21 18 -41 1
-13 -9 -10 -12 4 -1 3 -26 32 -55 63 -28 31 -50 62 -48 69 3 6 -5 19 -17 30
-22 18 -22 18 -7 -2 8 -12 -4 0 -27 25 -23 25 -41 50 -38 57 2 6 -6 19 -18 30
l-22 18 19 -22 c11 -13 17 -23 14 -23 -3 0 -64 71 -134 157 -178 217 -165 200
-149 200 8 0 13 -3 12 -6 -3 -10 9 -11 166 -11 l153 0 2 33 c1 17 -11 116 -27
219 -15 103 -24 185 -19 182 4 -3 8 -19 8 -35z"/>
</g>
</svg>
